<?xml version="1.0" encoding="utf-8"?>
<!-- Generator: Adobe Illustrator 16.0.3, SVG Export Plug-In . SVG Version: 6.00 Build 0)  -->
<!DOCTYPE svg PUBLIC "-//W3C//DTD SVG 1.1//EN" "http://www.w3.org/Graphics/SVG/1.1/DTD/svg11.dtd">
<svg version="1.1" id="Ebene_1" xmlns="http://www.w3.org/2000/svg" xmlns:xlink="http://www.w3.org/1999/xlink" x="0px" y="0px"
	 width="150px" height="150px" viewBox="0 0 150 150" enable-background="new 0 0 150 150" xml:space="preserve">
<g>
	<circle fill="none" stroke="#FFFFFF" stroke-width="1.5" stroke-miterlimit="10" cx="75.333" cy="-78.666" r="70"/>
	<g>
		<g>
			<path fill="#FFFFFF" d="M30.382-59.913c0,1.43-0.796,2.588-1.779,2.588h-4.741c-0.983,0-1.779-1.158-1.779-2.588V-97.42
				c0-1.428,0.796-2.586,1.779-2.586h4.741c0.983,0,1.779,1.158,1.779,2.586V-59.913z"/>
			<path fill="#FFFFFF" d="M40.683-53.804c0,1.895-0.796,3.43-1.778,3.43h-4.742c-0.983,0-1.778-1.535-1.778-3.43v-49.726
				c0-1.894,0.795-3.429,1.778-3.429h4.742c0.982,0,1.778,1.535,1.778,3.429V-53.804z"/>
			<path fill="#FFFFFF" d="M50.984-53.804c0,1.895-0.797,3.43-1.778,3.43h-4.742c-0.982,0-1.778-1.535-1.778-3.43v-49.726
				c0-1.894,0.796-3.429,1.778-3.429h4.742c0.981,0,1.778,1.535,1.778,3.429V-53.804z"/>
		</g>
		<g>
			<path fill="#FFFFFF" d="M120.286-59.913c0,1.43,0.796,2.588,1.778,2.588h4.742c0.982,0,1.779-1.158,1.779-2.588V-97.42
				c0-1.428-0.797-2.586-1.779-2.586h-4.742c-0.982,0-1.778,1.158-1.778,2.586V-59.913z"/>
			<path fill="#FFFFFF" d="M109.984-53.804c0,1.895,0.796,3.43,1.777,3.43h4.744c0.982,0,1.777-1.535,1.777-3.43v-49.726
				c0-1.894-0.795-3.429-1.777-3.429h-4.744c-0.981,0-1.777,1.535-1.777,3.429V-53.804z"/>
			<path fill="#FFFFFF" d="M99.684-53.804c0,1.895,0.797,3.43,1.778,3.43h4.742c0.983,0,1.778-1.535,1.778-3.43v-49.726
				c0-1.894-0.795-3.429-1.778-3.429h-4.742c-0.981,0-1.778,1.535-1.778,3.429V-53.804z"/>
		</g>
		<rect x="49.602" y="-80.821" fill="#FFFFFF" width="51.661" height="4.311"/>
	</g>
</g>
<g>
	<circle fill="none" stroke="#FFFFFF" stroke-width="1.5" stroke-miterlimit="10" cx="242.186" cy="-62.034" r="70"/>
	<g>
		<path fill="none" stroke="#FFFFFF" stroke-miterlimit="10" d="M269.367-76.478c0,0,1.803-4.397-2.483-6.096l-28.612-11.334
			c-4.522-1.792-6.011,2.763-6.011,2.763l-28.619,72.239c0,0-1.801,4.398,2.481,6.096l28.614,11.335
			c4.522,1.791,6.009-2.763,6.009-2.763L269.367-76.478z"/>
		<path fill="#FFFFFF" d="M253.908-44.635L239.171-7.449c0,0-1.393,4.273-5.636,2.593l-24.219-9.595
			c-4.021-1.593-2.329-5.718-2.329-5.718l14.734-37.184L253.908-44.635z"/>
		<path fill="#FFFFFF" d="M270.081-89.713c-0.896-3.132-7.02-3.85-7.689-5.398c-0.668-1.544-0.676-3.684,1.456-5.829
			c0.644-0.647,1.434-1.358,2.147-2.048c1.08-0.859,1.961-1.997,2.506-3.374c1.656-4.179-0.388-8.911-4.57-10.567
			c-4.18-1.657-8.912,0.393-10.568,4.571c-0.551,1.392-0.684,2.845-0.473,4.224c0.04,0.943,0.129,1.977,0.154,2.914
			c0.084,3.024-1.385,4.579-2.931,5.246c-1.55,0.669-6.502-3-9.301-1.333c-7.766,5.041,1.169,7.298,1.169,7.298l6.742,2.67
			l8.768,3.475l6.741,2.671C264.232-85.194,272.287-80.723,270.081-89.713z"/>
		<line fill="none" stroke="#FFFFFF" stroke-miterlimit="10" x1="231.063" y1="-87.88" x2="238.925" y2="-84.765"/>
		<line fill="none" stroke="#FFFFFF" stroke-miterlimit="10" x1="228.972" y1="-82.603" x2="236.834" y2="-79.488"/>
		<line fill="none" stroke="#FFFFFF" stroke-miterlimit="10" x1="226.88" y1="-77.323" x2="234.742" y2="-74.209"/>
		<line fill="none" stroke="#FFFFFF" stroke-miterlimit="10" x1="224.79" y1="-72.046" x2="232.652" y2="-68.932"/>
	</g>
</g>
<g>
	<circle fill="none" stroke="#FFFFFF" stroke-width="1.5" stroke-miterlimit="10" cx="526.46" cy="373.588" r="70"/>
	<g>
		<path fill-rule="evenodd" clip-rule="evenodd" fill="#FFFFFF" d="M490.712,351.147c23.873,0,47.76,0,71.589,0
			c0,2.166-0.022,3.258-0.021,4.811c0.018,17.792,0.021,35.582,0.006,53.373c-0.006,6.328-1.706,8.047-7.876,8.047
			c-18.433-0.004-36.863-0.006-55.292-0.021c-6.688-0.006-8.375-1.609-8.385-8.066c-0.027-17.791-0.023-35.583-0.013-53.373
			C490.72,354.504,490.677,353.758,490.712,351.147z M550.521,371.745c-6.019-12.439-19.255-17.916-32.24-13.749
			c-12.243,3.929-20.07,16.87-17.82,29.464c2.488,13.922,13.733,22.896,28.064,22.392c9.744-0.344,20.428-8.039,21.193-15.271
			c-4.146-0.789-7.393,0.085-10.737,3.247c-7.048,6.66-19.168,5.9-25.753-0.92c-7.392-7.654-7.503-19.301-0.259-26.906
			c6.969-7.313,18.69-8.245,26.028-1.315C542.515,372.006,545.894,372.609,550.521,371.745z M543.401,375.077
			c0,3.136,0,5.691,0,8.248c0,2.67,0,5.337,0,7.975c12.159,1.115,13.964-0.753,12.206-12.458c-0.184-1.223-0.579-2.413-0.91-3.765
			C550.803,375.077,547.186,375.077,543.401,375.077z M523.824,399.098c-7.662-9.206-8.172-18.878-5.276-29.361
			c-5.944,3.618-8.692,9.259-7.915,15.534C511.472,392.063,515.721,396.787,523.824,399.098z"/>
		<path fill-rule="evenodd" clip-rule="evenodd" fill="#FFFFFF" d="M562.281,338.398c-0.112-7.277-1.512-8.607-8.834-8.601
			c-16.838,0.017-33.677,0.02-50.517,0.013c-12.127-0.004-12.184,0.196-12.311,12.378c-0.039,3.761,0.951,4.934,4.826,4.897
			c20.687-0.186,41.379-0.08,62.069-0.095c1.406-0.002,2.42,0.031,4.771-0.024C562.287,344.008,562.323,341.083,562.281,338.398z
			 M498.806,341.093c-1.462,0-2.647-1.187-2.647-2.649s1.186-2.648,2.647-2.648c1.461,0,2.646,1.186,2.646,2.648
			S500.267,341.093,498.806,341.093z M506.588,341.093c-1.464,0-2.649-1.187-2.649-2.649s1.186-2.648,2.649-2.648
			c1.463,0,2.645,1.186,2.645,2.648S508.051,341.093,506.588,341.093z M514.367,341.093c-1.462,0-2.647-1.187-2.647-2.649
			s1.186-2.648,2.647-2.648c1.463,0,2.649,1.186,2.649,2.648S515.83,341.093,514.367,341.093z M522.148,341.093
			c-1.46,0-2.646-1.187-2.646-2.649s1.187-2.648,2.646-2.648c1.463,0,2.647,1.186,2.647,2.648S523.611,341.093,522.148,341.093z
			 M550.549,343.979c-3.057,0-5.535-2.48-5.535-5.536c0-3.057,2.479-5.535,5.535-5.535c3.059,0,5.536,2.479,5.536,5.535
			C556.085,341.499,553.607,343.979,550.549,343.979z"/>
	</g>
</g>
<g>
	<circle fill="none" stroke="#FFFFFF" stroke-width="1.5" stroke-miterlimit="10" cx="73.356" cy="75.092" r="70"/>
	<path fill="#FFFFFF" d="M31.787,115.086c0,0-4.453,1.05-5.147-3.176c-0.692-4.227-0.419-26.845,11.117-25.27
		c11.541,1.577,17.473,8.045,24.566,8.781c7.099,0.736,14.368-0.204,16.003-17.777C79.961,60.073,76.864,59,72.213,49.268
		c-4.65-9.732-3.816-12.288-3.752-14.734c0.065-2.446,1.211-4.404,3.639-4.152c2.429,0.253,2.429,0.253,2.429,0.253
		s2.611,0.273,2.549,2.72c-0.068,2.444-0.088,8.108,1.006,10.296c1.092,2.188-0.016,3.771,5.851,3.626
		c5.865-0.145,31.908-1.969,33.054,21.551c1.144,23.521-9.765,52.208-34.106,48.547c-24.341-3.66-20.544-20.252-34.548-21.707
		c-14.002-1.454-12.497,0.403-12.485,7.576c0.007,7.17-0.409,9.392-0.409,9.392S34.607,115.188,31.787,115.086z"/>
</g>
<g>
	<circle fill="none" stroke="#FFFFFF" stroke-width="1.5" stroke-miterlimit="10" cx="432.425" cy="552.426" r="70"/>
	<path fill-rule="evenodd" clip-rule="evenodd" fill="#FFFFFF" d="M406.228,568.604c2.232-11.271-3.035-20.651-7.621-30.2
		c-4.789-9.967-4.368-19.361,2.813-28.176c3.616-4.438,7.941-6.217,13.519-4.502c0.674,0.206,1.396,0.322,2.01,0.646
		c10.084,5.3,20.025,5.322,30.307,0.142c4.958-2.497,10.306-2.375,14.556,2.264c5.781,6.31,9.042,13.49,6.975,22.178
		c-1.479,6.211-4.608,11.822-7.437,17.484c-3.128,6.262-3.835,12.66-2.913,19.51c1.339,9.953-0.637,19.316-6.194,27.756
		c-1.305,1.981-2.746,4.771-5.549,4.154c-2.742-0.604-2.193-3.631-2.528-5.826c-1.028-6.772-1.025-13.738-3.839-20.174
		c-1.548-3.544-3.512-6.819-7.875-6.797c-4.273,0.022-6.537,3.146-8.088,6.656c-2.236,5.054-3.079,10.457-3.479,15.935
		c-0.14,1.933-0.105,3.89-0.404,5.795c-0.269,1.709-0.508,3.828-2.435,4.375c-2.142,0.609-3.739-0.968-4.786-2.604
		c-3.729-5.836-6.878-11.933-7.02-19.095C406.175,574.952,406.228,571.777,406.228,568.604z"/>
</g>
</svg>
